<svg width="48" height="48" viewBox="0 0 48 48" fill="none" xmlns="http://www.w3.org/2000/svg"><path d="M44.531 15.49a2.533 2.533 0 0 0-1.324-.638 2.428 2.428 0 0 0-1.431.225l-9.469 4.62a.332.332 0 0 1-.4-.044.388.388 0 0 1-.087-.121L26.286 8.6a2.765 2.765 0 0 0-.957-1.09A2.43 2.43 0 0 0 24 7.107a2.43 2.43 0 0 0-1.33.4c-.403.264-.733.64-.958 1.093l-5.53 10.932a.388.388 0 0 1-.09.121.348.348 0 0 1-.123.075c-.047.015-.094.02-.142.015a.332.332 0 0 1-.134-.046l-9.47-4.62a2.413 2.413 0 0 0-1.429-.233c-.487.071-.946.291-1.325.635a2.91 2.91 0 0 0-.818 1.309 3.164 3.164 0 0 0-.065 1.587L7.37 40.714c.08.377.23.733.439 1.045.208.31.473.573.777.769.401.269.862.411 1.332.411.24-.001.478-.036.711-.102a45.837 45.837 0 0 1 26.72-.02c.34.108.699.139 1.05.09.353-.047.693-.173 1-.37a2.73 2.73 0 0 0 .785-.773c.212-.314.364-.671.446-1.051l4.764-22.337c.119-.522.1-1.07-.052-1.58a2.87 2.87 0 0 0-.81-1.308zM43.22 17.8l-4.783 22.336a.477.477 0 0 1-.168.268.43.43 0 0 1-.301.042 47.873 47.873 0 0 0-27.939 0 .34.34 0 0 1-.294-.043.39.39 0 0 1-.112-.114.434.434 0 0 1-.062-.154L4.782 17.8a.475.475 0 0 1 .078-.354c.036-.049.08-.089.132-.117a.365.365 0 0 1 .164-.046l.15.041 9.488 4.64a2.388 2.388 0 0 0 1.898.105c.622-.23 1.143-.709 1.458-1.342L23.68 9.797a.38.38 0 0 1 .132-.158.333.333 0 0 1 .375-.001.38.38 0 0 1 .132.157l5.53 10.931c.315.633.835 1.112 1.458 1.342.622.23 1.3.192 1.898-.104l9.488-4.64a.344.344 0 0 1 .393.06.415.415 0 0 1 .12.187.452.452 0 0 1 .012.226zM31.124 33.473a1.304 1.304 0 0 1-.371.791c-.207.205-.476.32-.754.323h-.113a53.52 53.52 0 0 0-11.775 0 1.055 1.055 0 0 1-.823-.265 1.275 1.275 0 0 1-.415-.828 1.346 1.346 0 0 1 .254-.907 1.12 1.12 0 0 1 .757-.454 52.683 52.683 0 0 1 12.225 0c.294.036.563.196.752.446.188.25.282.57.26.894z" fill="#2B7FFF"/></svg>