<svg width="42" height="42" viewBox="0 0 42 42" fill="none" xmlns="http://www.w3.org/2000/svg"><path d="M31.482 2.793a48.968 48.968 0 0 0-5.314-.273c-5.886 0-9.543 3.748-9.543 9.782V16.4H11.68a.875.875 0 0 0-.874.874v6.738a.875.875 0 0 0 .875.875h4.945v13.51a.875.875 0 0 0 .875.875h6.961a.875.875 0 0 0 .876-.875v-13.51h4.928a.875.875 0 0 0 .868-.761l.87-6.738a.877.877 0 0 0-.868-.989h-5.798v-3.43c0-1.696.342-2.405 2.464-2.405h3.569a.875.875 0 0 0 .874-.875V3.66a.875.875 0 0 0-.762-.867zm-.988 6.02-2.695.002c-3.776 0-4.214 2.373-4.214 4.156v4.306a.875.875 0 0 0 .874.875h5.68l-.646 4.989h-5.033a.875.875 0 0 0-.874.874V37.52h-5.211V24.013a.875.875 0 0 0-.875-.875h-4.942v-4.987H17.5a.875.875 0 0 0 .875-.874v-4.973c0-5.03 2.914-8.033 7.793-8.033 1.765 0 3.36.096 4.326.18v4.363z" fill="white"/></svg>