<svg width="42" height="42" viewBox="0 0 42 42" fill="none" xmlns="http://www.w3.org/2000/svg"><path d="M21 13.453a7.547 7.547 0 1 0 0 15.093 7.547 7.547 0 0 0 0-15.093zm0 13.125A5.578 5.578 0 1 1 26.578 21 5.594 5.594 0 0 1 21 26.578zM28.22 4.922H13.78a8.86 8.86 0 0 0-8.858 8.86v14.437a8.86 8.86 0 0 0 8.86 8.858h14.437a8.86 8.86 0 0 0 8.858-8.86V13.782a8.86 8.86 0 0 0-8.86-8.858zm6.89 23.297a6.89 6.89 0 0 1-6.891 6.89H13.78a6.89 6.89 0 0 1-6.89-6.891V13.78a6.89 6.89 0 0 1 6.891-6.89H28.22a6.89 6.89 0 0 1 6.89 6.891V28.22zm-3.938-15.751a1.64 1.64 0 1 1-3.28-.001 1.64 1.64 0 0 1 3.28-.001z" fill="white"/></svg>