<svg width="48" height="48" viewBox="0 0 48 48" fill="none" xmlns="http://www.w3.org/2000/svg"><path d="M24.092 2.1c-1.575 0-3.046.717-4.3 1.891-1.254 1.176-2.327 2.812-3.222 4.793-.187.415-.366.847-.537 1.292a24.773 24.773 0 0 0-1.39-.18 20.898 20.898 0 0 0-1.582-.1c-1.539-.037-2.946.12-4.179.493-1.643.499-3 1.414-3.787 2.778-.787 1.364-.902 2.997-.511 4.67.39 1.673 1.27 3.42 2.54 5.186.265.37.55.741.85 1.113a24.69 24.69 0 0 0-.85 1.112c-1.269 1.765-2.149 3.513-2.54 5.186-.39 1.673-.275 3.306.512 4.67.788 1.363 2.145 2.279 3.789 2.777 1.644.499 3.597.61 5.76.394.454-.045.917-.106 1.389-.18.167.436.347.868.538 1.294.895 1.982 1.968 3.617 3.222 4.792 1.254 1.174 2.725 1.892 4.3 1.892 1.575 0 3.046-.718 4.3-1.892 1.253-1.175 2.326-2.81 3.22-4.792.193-.426.372-.858.54-1.294.47.074.933.135 1.387.18 2.162.216 4.115.104 5.76-.394 1.644-.498 3-1.414 3.788-2.778.787-1.364.901-2.996.511-4.67-.391-1.672-1.271-3.42-2.54-5.185-.273-.379-.556-.75-.85-1.112.294-.363.578-.734.85-1.113 1.27-1.766 2.15-3.513 2.54-5.186.39-1.673.276-3.306-.511-4.67-.789-1.364-2.146-2.28-3.79-2.778-1.232-.373-2.64-.53-4.179-.493a20.9 20.9 0 0 0-1.58.1c-.454.045-.918.105-1.39.18a24.876 24.876 0 0 0-.538-1.292c-.894-1.982-1.967-3.618-3.221-4.792-1.253-1.174-2.724-1.89-4.299-1.89h.002zm0 1.751c1.05.001 2.08.463 3.102 1.42 1.02.957 1.996 2.405 2.822 4.234.134.299.262.6.383.904-2.009.447-4.135 1.132-6.309 2.047-2.172-.915-4.298-1.6-6.306-2.046.124-.312.251-.614.383-.906.826-1.83 1.802-3.278 2.823-4.235 1.021-.957 2.051-1.419 3.102-1.419v.001zm-11.587 7.694a18.71 18.71 0 0 1 1.963.094c.32.032.647.072.979.12-.618 1.962-1.088 4.146-1.382 6.486-1.88 1.425-3.537 2.925-4.927 4.44-.204-.257-.401-.519-.593-.785-1.172-1.63-1.938-3.2-2.256-4.563-.318-1.363-.203-2.485.323-3.395.526-.91 1.44-1.57 2.78-1.977.879-.267 1.93-.41 3.115-.42zm23.172 0c1.184.01 2.237.155 3.115.421 1.34.406 2.254 1.067 2.78 1.977.525.91.64 2.033.322 3.395-.318 1.363-1.084 2.932-2.256 4.562-.192.265-.39.527-.593.785-1.39-1.516-3.046-3.015-4.925-4.44-.294-2.34-.765-4.524-1.382-6.486.33-.05.657-.09.976-.122a18.78 18.78 0 0 1 1.963-.094zm-4.68.53a34.027 34.027 0 0 1 1.14 4.752 47.596 47.596 0 0 0-5.826-3.364c1.625-.605 3.2-1.069 4.687-1.389zm-13.81 0c1.485.32 3.06.784 4.684 1.389a47.666 47.666 0 0 0-5.823 3.362 34 34 0 0 1 1.14-4.752zm6.904 2.292a44.814 44.814 0 0 1 4.316 2.193c1.444.832 2.8 1.72 4.058 2.64.169 1.55.26 3.17.26 4.836 0 1.665-.09 3.283-.26 4.832a44.9 44.9 0 0 1-4.057 2.641 44.844 44.844 0 0 1-4.316 2.192 44.824 44.824 0 0 1-4.315-2.193 44.826 44.826 0 0 1-4.056-2.641 44.827 44.827 0 0 1-.26-4.835c0-1.666.09-3.285.259-4.835a44.852 44.852 0 0 1 4.056-2.64 44.81 44.81 0 0 1 4.315-2.193zm.12 2.636-5.016 3.096 5.016 3.095 5.015-3.095-5.015-3.096zm-10.384 3.67a47.735 47.735 0 0 0 0 6.725 33.97 33.97 0 0 1-3.546-3.363 34.01 34.01 0 0 1 3.546-3.363zm20.532 0a34.02 34.02 0 0 1 3.544 3.362 33.997 33.997 0 0 1-3.544 3.363 47.72 47.72 0 0 0 0-6.725zm-16.294.787v6.111l5.268 3.252V24.71l-5.268-3.251zm12.287.002-5.266 3.25v6.11l5.267-3.25v-6.11zM9.138 25.385c1.39 1.516 3.047 3.015 4.926 4.44.295 2.34.765 4.523 1.382 6.485-.33.048-.657.088-.976.12-1.998.2-3.74.08-5.08-.327-1.338-.406-2.253-1.067-2.778-1.977-.525-.91-.64-2.033-.323-3.395.317-1.362 1.084-2.93 2.255-4.56.191-.267.389-.528.592-.785zm29.908 0c.207.262.405.524.592.784 1.171 1.629 1.938 3.198 2.256 4.56.318 1.363.203 2.486-.323 3.396-.525.91-1.44 1.571-2.779 1.977-1.338.406-3.08.527-5.077.327a22.47 22.47 0 0 1-.975-.12c.618-1.963 1.088-4.147 1.382-6.487C36 28.4 37.655 26.9 39.045 25.385zm-6.908 5.858a34.012 34.012 0 0 1-1.14 4.752 34.012 34.012 0 0 1-4.685-1.39 47.832 47.832 0 0 0 5.825-3.362zm-16.09 0a47.658 47.658 0 0 0 5.823 3.363 33.985 33.985 0 0 1-4.685 1.39 33.99 33.99 0 0 1-1.139-4.752zm8.096.08.064.04.064-.04h-.126zm-.052 4.29c2.175.916 4.302 1.6 6.31 2.047-.121.305-.25.607-.384.907-.826 1.83-1.801 3.277-2.823 4.234-1.02.958-2.05 1.42-3.101 1.42-1.05 0-2.08-.462-3.102-1.419-1.021-.956-1.997-2.404-2.823-4.233-.134-.3-.262-.602-.384-.907 2.008-.446 4.135-1.131 6.308-2.046z" fill="#2B7FFF"/></svg>