<svg width="48" height="49" viewBox="0 0 48 49" fill="none" xmlns="http://www.w3.org/2000/svg"><g clip-path="url(#clip0_64_171)"><path d="M13.108 18.573H-.184c-.409 0-.739.316-.739.708v4.252c0 .392.33.709.739.709h.738v16.296c0 .392.33.709.739.709H11.63c.41 0 .74-.317.74-.709V24.241h.738c.408 0 .738-.316.738-.708v-4.25c0-.392-.33-.71-.738-.71zM4.985 32.034v-1.417h4.43V29.2h-4.43v-1.417h5.907v9.21H4.985v-3.542h1.477v-1.416H4.985zm5.907-5.668H4.247c-.408 0-.738.317-.738.709v10.627c0 .392.33.709.738.709h6.647v1.418H2.03V24.24h8.863v2.126zm1.477-3.542H.554V19.99H12.37v2.834z" fill="#2B7FFF"/><path d="M22.893 18.706v-5.18c0-.404-.33-.73-.739-.73h-.738V9.15h1.477V7.69H14.77v1.46h5.169v3.646h-.74a.733.733 0 0 0-.738.73v5.18c-1.683.339-2.954 1.812-2.954 3.573v18.235c0 .404.33.73.738.73h8.862a.733.733 0 0 0 .739-.73V22.28c0-1.762-1.271-3.235-2.954-3.574zm-2.954-4.45h1.476v4.376h-1.477v-4.377zm-.74 5.835h2.954c1.222 0 2.215.983 2.215 2.19v.729h-7.385v-.73c0-1.207.994-2.19 2.215-2.19zm5.17 16.778h-7.385V35.41h2.954v-1.46h-2.955v-9.483h7.384v12.401zm-7.385 2.918v-1.46h7.384v1.46h-7.385z" fill="#2B7FFF"/><path d="M41.77 17.666H29.308a.703.703 0 0 0-.692.715v22.15c0 .396.31.715.692.715H41.77c.382 0 .692-.32.692-.715V18.38a.703.703 0 0 0-.692-.714zm-.693 22.15H30v-20.72h11.077v20.72z" fill="#2B7FFF"/><path d="M10.154 32.176H8.308v.907h1.846v-.907z" fill="#2B7FFF"/><path d="M23.077 33.99h-1.846v1.813h1.847V33.99z" fill="#2B7FFF"/><path d="M20.77 32.176c1.781 0 3.23-1.423 3.23-3.174 0-1.75-1.449-3.174-3.23-3.174-1.782 0-3.231 1.424-3.231 3.174-.001 1.75 1.448 3.174 3.23 3.174zm0-4.761c.89 0 1.615.712 1.615 1.587s-.725 1.587-1.616 1.587c-.892 0-1.616-.713-1.616-1.588 0-.875.725-1.587 1.615-1.587z" fill="#2B7FFF"/><path d="M33.808 24.92h3.461c1.335 0 2.423-1.016 2.423-2.266s-1.088-2.267-2.424-2.267h-3.462c-1.336 0-2.423 1.017-2.423 2.267s1.087 2.267 2.423 2.267zm4.5-2.266c0 .535-.466.971-1.039.971h-1.04v-1.943h1.04c.572 0 1.038.436 1.038.972zm-4.5-.972h1.038v1.943h-1.038c-.573 0-1.039-.436-1.039-.971 0-.536.465-.972 1.038-.972z" fill="#2B7FFF"/><path d="M33.808 32.176h3.461c1.335 0 2.423-1.22 2.423-2.72s-1.088-2.721-2.424-2.721h-3.462c-1.336 0-2.423 1.22-2.423 2.72s1.087 2.72 2.423 2.72zm4.5-2.72c0 .642-.466 1.165-1.039 1.165h-1.04v-2.33h1.04c.572 0 1.038.522 1.038 1.165zm-4.5-1.167h1.038v2.331h-1.038c-.573.001-1.039-.522-1.039-1.165 0-.643.465-1.166 1.038-1.166z" fill="#2B7FFF"/><path d="M33.808 38.524h3.461c1.335 0 2.423-1.22 2.423-2.72s-1.088-2.72-2.424-2.72h-3.462c-1.336 0-2.423 1.22-2.423 2.72s1.087 2.72 2.423 2.72zm4.5-2.72c0 .642-.466 1.166-1.039 1.166h-1.04v-2.332h1.04c.572 0 1.038.523 1.038 1.166zm-4.5-1.166h1.038v2.332h-1.038c-.573 0-1.039-.524-1.039-1.166 0-.643.465-1.166 1.038-1.166z" fill="#2B7FFF"/></g><defs><clipPath id="clip0_64_171"><rect width="48" height="48" fill="white" transform="translate(0 0.5)"/></clipPath></defs></svg>