<svg width="42" height="42" viewBox="0 0 42 42" fill="none" xmlns="http://www.w3.org/2000/svg"><path d="m36.297 30.132-.228-.284c-1.802-2.277-3.307-3.462-4.598-3.617-1.117-.151-2.197.62-3.344 1.415l-1.227.766a2.647 2.647 0 0 1-.428.174c-.718.204-2.529.323-3.554-.615-1.194-1.094-3.045-3.092-4.485-4.838-1.376-1.808-2.888-4.062-3.677-5.482-.667-1.202-.109-2.883.264-3.506a2.43 2.43 0 0 1 .276-.363l1.082-.998c.016-.016.023-.035.037-.05.01-.01.028-.006.04-.015.976-.824 1.986-1.673 2.125-2.763.162-1.28-.634-3.013-2.438-5.288l-.22-.284C14.804 2.95 13.115.786 10.69 1.142c-.953.143-1.805.468-2.684 1.02-.009.005-.014.015-.02.02-.008.006-.017.006-.024.01L6.74 3.1c-.013.006-.02.022-.032.033-.01.008-.023.01-.034.019-.141.119-.283.241-.423.367-1.24 1.105-3.926 4.317-2.094 10.256 1.183 3.836 3.623 8.312 7.072 12.97l-.033.03 1.902 2.369.016-.013c3.74 4.424 7.546 7.844 11.033 9.914 2.328 1.382 4.361 1.84 6.034 1.84 2.202 0 3.778-.792 4.57-1.306l.496-.333c.057-.038.097-.093.137-.142l1.083-.815c.013-.01.02-.025.032-.035.005-.005.014-.004.02-.009.77-.703 1.304-1.44 1.675-2.313.961-2.238-.76-4.382-1.896-5.801zm.61 5.251c-.289.68-.71 1.257-1.32 1.817l-1.61 1.212c-1.46.95-4.58 2.122-9.113-.57-3.488-2.07-7.327-5.57-11.106-10.122l-1.022-1.292c-3.557-4.717-6.06-9.236-7.241-13.065-1.535-4.979.399-7.65 1.694-8.802.13-.118.261-.229.39-.34l.006-.004 1.174-.87c.714-.451 1.376-.703 2.137-.82 1.626-.244 2.949 1.47 3.92 2.717l.227.289c2.016 2.543 2.21 3.752 2.148 4.245-.07.548-.903 1.25-1.638 1.867l-.104.088-.008.012c-.006.004-.01.005-.016.01l-1.118 1.033c-.007.007-.01.016-.018.025-.007.009-.02.012-.028.02a3.93 3.93 0 0 0-.443.59c-.629 1.052-1.222 3.226-.286 4.908.817 1.47 2.373 3.792 3.803 5.668 1.494 1.813 3.4 3.87 4.636 5 .926.845 2.214 1.128 3.328 1.128a5.9 5.9 0 0 0 1.56-.2c.22-.062.445-.153.678-.267.014-.008.02-.02.035-.03.007-.002.017 0 .024-.006l1.299-.812c.042-.028.07-.065.105-.1l.017.018c.8-.555 1.71-1.206 2.281-1.111.506.06 1.654.546 3.674 3.096l.232.292c.984 1.227 2.332 2.907 1.703 4.375z" fill="white"/></svg>