<svg width="32" height="32" viewBox="0 0 32 32" fill="none" xmlns="http://www.w3.org/2000/svg"><path d="m27.655 22.957-.173-.216c-1.372-1.733-2.52-2.636-3.503-2.755-.852-.116-1.674.472-2.55 1.078l-.934.584a2.014 2.014 0 0 1-.326.132c-.547.153-1.927.244-2.708-.47-.91-.833-2.32-2.355-3.418-3.686-1.048-1.377-2.2-3.095-2.801-4.176-.508-.916-.083-2.197.201-2.672.056-.093.13-.185.21-.276l.825-.761c.01-.013.016-.028.027-.039.008-.007.021-.004.03-.01.745-.629 1.514-1.275 1.62-2.106.123-.976-.483-2.296-1.858-4.03l-.17-.215C11.28 2.247 9.995.598 8.147.869c-.727.109-1.376.357-2.046.777-.006.004-.01.012-.016.016-.005.004-.012.004-.017.008l-.932.691c-.01.007-.015.019-.024.027-.006.006-.016.008-.024.014-.108.092-.216.185-.323.281-.945.844-2.992 3.29-1.596 7.816.901 2.923 2.76 6.333 5.388 9.883l-.025.02 1.449 1.805.01-.01c2.85 3.372 5.75 5.977 8.408 7.554 1.773 1.053 3.322 1.4 4.597 1.4 1.677 0 2.879-.602 3.481-.994l.379-.253c.043-.03.073-.07.104-.108l.824-.622c.01-.008.015-.018.024-.026.004-.004.01-.003.016-.007.587-.536.994-1.097 1.276-1.763.732-1.705-.578-3.338-1.445-4.42zm.465 4.002c-.22.516-.541.956-1.005 1.383l-1.228.924c-1.112.722-3.49 1.616-6.943-.435-2.657-1.577-5.582-4.244-8.461-7.712l-.779-.984C6.994 16.54 5.087 13.1 4.187 10.18c-1.17-3.792.304-5.827 1.29-6.705.1-.09.2-.175.3-.26l.003-.003.895-.663a4.067 4.067 0 0 1 1.628-.625c1.239-.186 2.247 1.12 2.987 2.07l.173.22c1.536 1.937 1.684 2.858 1.636 3.234-.054.417-.69.951-1.25 1.422l-.078.067c-.002.001-.004.005-.006.008l-.012.007-.852.788c-.006.005-.008.012-.014.018-.005.008-.016.01-.021.017a2.996 2.996 0 0 0-.337.45c-.48.8-.931 2.457-.218 3.738.623 1.12 1.808 2.89 2.898 4.32 1.138 1.38 2.59 2.948 3.532 3.808.705.644 1.686.86 2.536.86.454 0 .872-.062 1.188-.152.166-.047.338-.116.516-.203.01-.005.016-.014.026-.02.006-.004.014-.002.019-.006l.99-.618c.031-.021.053-.05.08-.076l.011.013c.61-.423 1.304-.92 1.739-.847.385.046 1.26.417 2.799 2.36l.177.222c.75.935 1.776 2.215 1.297 3.334z" fill="#011C44"/></svg>